<svg xmlns="http://www.w3.org/2000/svg" xmlns:xlink="http://www.w3.org/1999/xlink" width="500" zoomAndPan="magnify" viewBox="0 0 375 374.999991" height="500" preserveAspectRatio="xMidYMid meet" version="1.0"><defs><g/><clipPath id="e8b1b2906a"><path d="M 44.519531 155 L 118 155 L 118 220.828125 L 44.519531 220.828125 Z M 44.519531 155 " clip-rule="nonzero"/></clipPath><clipPath id="1416982182"><rect x="0" width="139" y="0" height="58"/></clipPath></defs><rect x="-37.5" width="450" fill="#ffffff" y="-37.499999" height="449.999989" fill-opacity="1"/><rect x="-37.5" width="450" fill="#ffffff" y="-37.499999" height="449.999989" fill-opacity="1"/><path fill="#8d9777" d="M 88.945312 218.886719 L 60.386719 218.886719 C 56.574219 218.886719 53.488281 215.800781 53.488281 211.988281 L 53.488281 181.023438 L 77.4375 163.742188 C 77.519531 163.6875 77.753906 163.6875 77.832031 163.742188 L 101.777344 181.023438 L 101.777344 181.753906 C 100.570312 182.148438 99.40625 182.664062 98.328125 183.339844 C 95.84375 181.78125 92.964844 180.945312 89.957031 180.945312 C 85.746094 180.945312 81.78125 182.585938 78.804688 185.566406 C 75.824219 188.542969 74.183594 192.507812 74.183594 196.722656 C 74.183594 200.9375 75.824219 204.898438 78.609375 207.675781 Z M 88.945312 218.886719 " fill-opacity="1" fill-rule="nonzero"/><path fill="#d97d54" d="M 112.976562 203 L 98.328125 218.886719 L 83.683594 203 C 80.214844 199.53125 80.214844 193.910156 83.683594 190.445312 C 87.148438 186.976562 92.769531 186.976562 96.238281 190.445312 L 98.328125 192.535156 L 100.421875 190.445312 C 103.886719 186.976562 109.507812 186.976562 112.976562 190.445312 C 116.441406 193.910156 116.441406 199.53125 112.976562 203 Z M 112.976562 203 " fill-opacity="1" fill-rule="nonzero"/><g clip-path="url(#e8b1b2906a)"><path fill="#2f2f2f" d="M 87.355469 217.164062 L 90.535156 220.613281 L 60.386719 220.613281 C 55.632812 220.613281 51.761719 216.746094 51.761719 211.988281 L 51.761719 182.269531 L 55.210938 179.78125 L 55.210938 211.988281 C 55.210938 214.84375 57.53125 217.164062 60.386719 217.164062 Z M 72.386719 156.75 L 45.578125 176.097656 C 44.808594 176.65625 44.632812 177.734375 45.191406 178.503906 C 45.75 179.28125 46.828125 179.453125 47.597656 178.894531 L 74.40625 159.546875 C 76.304688 158.175781 78.960938 158.175781 80.859375 159.546875 L 107.667969 178.894531 C 107.972656 179.113281 108.328125 179.222656 108.675781 179.222656 C 109.210938 179.222656 109.738281 178.972656 110.074219 178.503906 C 110.636719 177.734375 110.460938 176.65625 109.6875 176.097656 L 82.878906 156.75 C 79.789062 154.519531 75.472656 154.519531 72.386719 156.75 Z M 114.195312 189.226562 C 118.328125 193.359375 118.328125 200.082031 114.195312 204.21875 L 99.597656 220.058594 C 99.273438 220.410156 98.8125 220.613281 98.328125 220.613281 C 97.847656 220.613281 97.386719 220.410156 97.0625 220.058594 L 82.414062 204.167969 C 80.460938 202.214844 79.359375 199.554688 79.359375 196.722656 C 79.359375 193.890625 80.460938 191.226562 82.464844 189.226562 C 86.46875 185.21875 93.457031 185.222656 97.457031 189.226562 L 98.328125 190.097656 L 99.203125 189.226562 C 103.203125 185.222656 110.191406 185.21875 114.195312 189.226562 Z M 111.757812 191.664062 C 109.050781 188.960938 104.339844 188.964844 101.640625 191.664062 L 99.550781 193.753906 C 98.875 194.429688 97.785156 194.429688 97.109375 193.753906 L 95.019531 191.664062 C 93.667969 190.3125 91.871094 189.570312 89.957031 189.570312 C 88.050781 189.570312 86.253906 190.3125 84.902344 191.664062 C 83.550781 193.015625 82.808594 194.808594 82.808594 196.722656 C 82.808594 198.632812 83.550781 200.429688 84.902344 201.78125 L 98.328125 216.34375 L 111.710938 201.832031 C 114.546875 198.992188 114.546875 194.453125 111.757812 191.664062 Z M 111.757812 191.664062 " fill-opacity="1" fill-rule="nonzero"/></g><g transform="matrix(1, 0, 0, 1, 113, 148)"><g clip-path="url(#1416982182)"><g fill="#5c5c5c" fill-opacity="1"><g transform="translate(0.86647, 42.205063)"><g><path d="M 16.125 0.515625 C 14.113281 0.515625 12.257812 0.160156 10.5625 -0.546875 C 8.863281 -1.253906 7.394531 -2.238281 6.15625 -3.5 C 4.914062 -4.769531 3.957031 -6.269531 3.28125 -8 C 2.601562 -9.738281 2.265625 -11.632812 2.265625 -13.6875 C 2.265625 -15.75 2.601562 -17.644531 3.28125 -19.375 C 3.957031 -21.113281 4.914062 -22.613281 6.15625 -23.875 C 7.394531 -25.144531 8.863281 -26.128906 10.5625 -26.828125 C 12.257812 -27.535156 14.113281 -27.890625 16.125 -27.890625 C 18.28125 -27.890625 20.265625 -27.492188 22.078125 -26.703125 C 23.898438 -25.910156 25.453125 -24.773438 26.734375 -23.296875 C 28.023438 -21.828125 28.972656 -20.085938 29.578125 -18.078125 L 25.90625 -18.078125 C 25.195312 -20.054688 23.972656 -21.613281 22.234375 -22.75 C 20.503906 -23.882812 18.503906 -24.453125 16.234375 -24.453125 C 14.203125 -24.453125 12.398438 -23.992188 10.828125 -23.078125 C 9.265625 -22.171875 8.035156 -20.90625 7.140625 -19.28125 C 6.242188 -17.664062 5.796875 -15.800781 5.796875 -13.6875 C 5.796875 -11.582031 6.242188 -9.71875 7.140625 -8.09375 C 8.035156 -6.476562 9.265625 -5.210938 10.828125 -4.296875 C 12.398438 -3.390625 14.203125 -2.9375 16.234375 -2.9375 C 18.554688 -2.9375 20.617188 -3.535156 22.421875 -4.734375 C 24.222656 -5.929688 25.472656 -7.5625 26.171875 -9.625 L 29.8125 -9.625 C 29.257812 -7.59375 28.328125 -5.816406 27.015625 -4.296875 C 25.703125 -2.785156 24.109375 -1.601562 22.234375 -0.75 C 20.367188 0.09375 18.332031 0.515625 16.125 0.515625 Z M 16.125 0.515625 "/></g></g></g><g fill="#5c5c5c" fill-opacity="1"><g transform="translate(36.001274, 42.205063)"><g><path d="M 0.671875 0 L 11.9375 -27.390625 L 15.140625 -27.390625 L 26.40625 0 L 22.765625 0 L 20.1875 -6.21875 L 6.84375 -6.21875 L 4.34375 0 Z M 8.171875 -9.421875 L 18.890625 -9.421875 L 13.53125 -22.578125 Z M 8.171875 -9.421875 "/></g></g></g><g fill="#5c5c5c" fill-opacity="1"><g transform="translate(66.284554, 42.205063)"><g><path d="M 13.109375 0.515625 C 10.921875 0.515625 9.023438 0.144531 7.421875 -0.59375 C 5.816406 -1.34375 4.578125 -2.390625 3.703125 -3.734375 C 2.828125 -5.078125 2.375 -6.632812 2.34375 -8.40625 L 5.796875 -8.40625 C 5.847656 -6.664062 6.546875 -5.289062 7.890625 -4.28125 C 9.234375 -3.28125 10.972656 -2.78125 13.109375 -2.78125 C 15.035156 -2.78125 16.566406 -3.15625 17.703125 -3.90625 C 18.835938 -4.664062 19.40625 -5.722656 19.40625 -7.078125 C 19.40625 -8.359375 18.859375 -9.382812 17.765625 -10.15625 C 16.671875 -10.925781 14.882812 -11.597656 12.40625 -12.171875 C 9.039062 -12.972656 6.570312 -14.003906 5 -15.265625 C 3.4375 -16.535156 2.65625 -18.226562 2.65625 -20.34375 C 2.65625 -22.664062 3.535156 -24.503906 5.296875 -25.859375 C 7.054688 -27.210938 9.4375 -27.890625 12.4375 -27.890625 C 15.519531 -27.890625 17.953125 -27.117188 19.734375 -25.578125 C 21.523438 -24.046875 22.429688 -21.945312 22.453125 -19.28125 L 19.046875 -19.28125 C 19.023438 -20.925781 18.421875 -22.222656 17.234375 -23.171875 C 16.046875 -24.128906 14.445312 -24.609375 12.4375 -24.609375 C 10.476562 -24.609375 8.945312 -24.222656 7.84375 -23.453125 C 6.738281 -22.679688 6.1875 -21.644531 6.1875 -20.34375 C 6.1875 -19.21875 6.695312 -18.269531 7.71875 -17.5 C 8.75 -16.738281 10.597656 -16.03125 13.265625 -15.375 C 16.753906 -14.507812 19.242188 -13.429688 20.734375 -12.140625 C 22.222656 -10.859375 22.96875 -9.210938 22.96875 -7.203125 C 22.96875 -4.828125 22.070312 -2.945312 20.28125 -1.5625 C 18.5 -0.175781 16.109375 0.515625 13.109375 0.515625 Z M 13.109375 0.515625 "/></g></g></g><g fill="#5c5c5c" fill-opacity="1"><g transform="translate(94.807198, 42.205063)"><g><path d="M 0.671875 0 L 11.9375 -27.390625 L 15.140625 -27.390625 L 26.40625 0 L 22.765625 0 L 20.1875 -6.21875 L 6.84375 -6.21875 L 4.34375 0 Z M 8.171875 -9.421875 L 18.890625 -9.421875 L 13.53125 -22.578125 Z M 8.171875 -9.421875 "/></g></g></g><g fill="#5c5c5c" fill-opacity="1"><g transform="translate(125.097935, 42.205063)"><g/></g></g></g></g><g fill="#5c5c5c" fill-opacity="1"><g transform="translate(115.778325, 223.397388)"><g><path d="M 21.609375 0 L 21.609375 -12.125 L 7.3125 -12.125 L 7.3125 0 L 3.921875 0 L 3.921875 -26.953125 L 7.3125 -26.953125 L 7.3125 -15.375 L 21.609375 -15.375 L 21.609375 -26.953125 L 25 -26.953125 L 25 0 Z M 21.609375 0 "/></g></g></g><g fill="#5c5c5c" fill-opacity="1"><g transform="translate(147.865645, 223.397388)"><g><path d="M 16.171875 0.5 C 13.453125 0.5 11.039062 -0.09375 8.9375 -1.28125 C 6.832031 -2.476562 5.1875 -4.128906 4 -6.234375 C 2.820312 -8.335938 2.234375 -10.753906 2.234375 -13.484375 C 2.234375 -16.234375 2.820312 -18.648438 4 -20.734375 C 5.1875 -22.828125 6.832031 -24.472656 8.9375 -25.671875 C 11.039062 -26.867188 13.453125 -27.46875 16.171875 -27.46875 C 18.921875 -27.46875 21.34375 -26.867188 23.4375 -25.671875 C 25.53125 -24.472656 27.171875 -22.828125 28.359375 -20.734375 C 29.554688 -18.648438 30.15625 -16.234375 30.15625 -13.484375 C 30.15625 -10.753906 29.554688 -8.335938 28.359375 -6.234375 C 27.171875 -4.128906 25.53125 -2.476562 23.4375 -1.28125 C 21.34375 -0.09375 18.921875 0.5 16.171875 0.5 Z M 5.703125 -13.484375 C 5.703125 -11.398438 6.144531 -9.5625 7.03125 -7.96875 C 7.914062 -6.375 9.144531 -5.128906 10.71875 -4.234375 C 12.300781 -3.335938 14.117188 -2.890625 16.171875 -2.890625 C 18.253906 -2.890625 20.078125 -3.335938 21.640625 -4.234375 C 23.210938 -5.128906 24.441406 -6.375 25.328125 -7.96875 C 26.210938 -9.5625 26.65625 -11.398438 26.65625 -13.484375 C 26.65625 -15.585938 26.210938 -17.425781 25.328125 -19 C 24.441406 -20.582031 23.210938 -21.820312 21.640625 -22.71875 C 20.078125 -23.625 18.253906 -24.078125 16.171875 -24.078125 C 14.117188 -24.078125 12.300781 -23.625 10.71875 -22.71875 C 9.144531 -21.820312 7.914062 -20.582031 7.03125 -19 C 6.144531 -17.425781 5.703125 -15.585938 5.703125 -13.484375 Z M 5.703125 -13.484375 "/></g></g></g><g fill="#5c5c5c" fill-opacity="1"><g transform="translate(183.381203, 223.397388)"><g><path d="M 15.953125 0.5 C 13.972656 0.5 12.144531 0.15625 10.46875 -0.53125 C 8.800781 -1.226562 7.351562 -2.195312 6.125 -3.4375 C 4.894531 -4.6875 3.9375 -6.164062 3.25 -7.875 C 2.570312 -9.582031 2.234375 -11.453125 2.234375 -13.484375 C 2.234375 -15.503906 2.566406 -17.363281 3.234375 -19.0625 C 3.898438 -20.757812 4.847656 -22.234375 6.078125 -23.484375 C 7.316406 -24.742188 8.765625 -25.722656 10.421875 -26.421875 C 12.078125 -27.117188 13.894531 -27.46875 15.875 -27.46875 C 17.925781 -27.46875 19.820312 -27.09375 21.5625 -26.34375 C 23.3125 -25.601562 24.820312 -24.5625 26.09375 -23.21875 C 27.363281 -21.882812 28.28125 -20.332031 28.84375 -18.5625 L 25.15625 -18.5625 C 24.300781 -20.3125 23.078125 -21.664062 21.484375 -22.625 C 19.898438 -23.59375 18.066406 -24.078125 15.984375 -24.078125 C 13.984375 -24.078125 12.203125 -23.625 10.640625 -22.71875 C 9.085938 -21.820312 7.875 -20.578125 7 -18.984375 C 6.132812 -17.390625 5.703125 -15.554688 5.703125 -13.484375 C 5.703125 -11.398438 6.144531 -9.5625 7.03125 -7.96875 C 7.914062 -6.375 9.132812 -5.128906 10.6875 -4.234375 C 12.238281 -3.335938 14.015625 -2.890625 16.015625 -2.890625 C 17.835938 -2.890625 19.457031 -3.25 20.875 -3.96875 C 22.289062 -4.6875 23.441406 -5.679688 24.328125 -6.953125 C 25.210938 -8.222656 25.769531 -9.707031 26 -11.40625 L 15.015625 -11.40625 L 15.015625 -14.640625 L 29.65625 -14.640625 C 29.707031 -11.679688 29.160156 -9.066406 28.015625 -6.796875 C 26.878906 -4.523438 25.273438 -2.738281 23.203125 -1.4375 C 21.140625 -0.144531 18.722656 0.5 15.953125 0.5 Z M 15.953125 0.5 "/></g></g></g><g fill="#5c5c5c" fill-opacity="1"><g transform="translate(217.201891, 223.397388)"><g><path d="M 0.65625 0 L 11.75 -26.953125 L 14.90625 -26.953125 L 26 0 L 22.421875 0 L 19.875 -6.125 L 6.734375 -6.125 L 4.28125 0 Z M 8.046875 -9.28125 L 18.609375 -9.28125 L 13.328125 -22.21875 Z M 8.046875 -9.28125 "/></g></g></g><g fill="#5c5c5c" fill-opacity="1"><g transform="translate(247.016552, 223.397388)"><g><path d="M 3.921875 0 L 3.921875 -26.953125 L 14.21875 -26.953125 C 16.09375 -26.953125 17.722656 -26.597656 19.109375 -25.890625 C 20.492188 -25.191406 21.570312 -24.195312 22.34375 -22.90625 C 23.113281 -21.625 23.5 -20.085938 23.5 -18.296875 C 23.5 -16.109375 22.929688 -14.300781 21.796875 -12.875 C 20.671875 -11.457031 19.117188 -10.503906 17.140625 -10.015625 L 23.921875 0 L 19.828125 0 L 13.25 -9.671875 L 7.3125 -9.671875 L 7.3125 0 Z M 7.3125 -12.90625 L 13.828125 -12.90625 C 15.804688 -12.90625 17.332031 -13.375 18.40625 -14.3125 C 19.488281 -15.25 20.03125 -16.578125 20.03125 -18.296875 C 20.03125 -20.015625 19.488281 -21.347656 18.40625 -22.296875 C 17.332031 -23.242188 15.804688 -23.71875 13.828125 -23.71875 L 7.3125 -23.71875 Z M 7.3125 -12.90625 "/></g></g></g></svg>